
<svg id="visual" viewBox="0 0 900 675" width="900" height="675" xmlns="http://www.w3.org/2000/svg" xmlns:xlink="http://www.w3.org/1999/xlink" version="1.1"><rect x="0" y="0" width="900" height="675" fill="#e3d4b7" opacity="0.5"></rect><defs><linearGradient id="grad1_0" x1="25%" y1="0%" x2="100%" y2="100%"><stop offset="23.333333333333336%" stop-color="#422a6d" stop-opacity="1"></stop><stop offset="76.66666666666666%" stop-color="#422a6d" stop-opacity="1"></stop></linearGradient></defs><defs><linearGradient id="grad1_1" x1="25%" y1="0%" x2="100%" y2="100%"><stop offset="23.333333333333336%" stop-color="#422a6d" stop-opacity="1"></stop><stop offset="76.66666666666666%" stop-color="#9b506f" stop-opacity="1"></stop></linearGradient></defs><defs><linearGradient id="grad1_2" x1="25%" y1="0%" x2="100%" y2="100%"><stop offset="23.333333333333336%" stop-color="#c89080" stop-opacity="1"></stop><stop offset="76.66666666666666%" stop-color="#9b506f" stop-opacity="1"></stop></linearGradient></defs><defs><linearGradient id="grad1_3" x1="25%" y1="0%" x2="100%" y2="100%"><stop offset="23.333333333333336%" stop-color="#c89080" stop-opacity="1"></stop><stop offset="76.66666666666666%" stop-color="#e3d4b7" stop-opacity="1"></stop></linearGradient></defs><defs><linearGradient id="grad2_0" x1="0%" y1="0%" x2="75%" y2="100%"><stop offset="23.333333333333336%" stop-color="#422a6d" stop-opacity="1"></stop><stop offset="76.66666666666666%" stop-color="#422a6d" stop-opacity="1"></stop></linearGradient></defs><defs><linearGradient id="grad2_1" x1="0%" y1="0%" x2="75%" y2="100%"><stop offset="23.333333333333336%" stop-color="#9b506f" stop-opacity="1"></stop><stop offset="76.66666666666666%" stop-color="#422a6d" stop-opacity="1"></stop></linearGradient></defs><defs><linearGradient id="grad2_2" x1="0%" y1="0%" x2="75%" y2="100%"><stop offset="23.333333333333336%" stop-color="#9b506f" stop-opacity="1"></stop><stop offset="76.66666666666666%" stop-color="#c89080" stop-opacity="1"></stop></linearGradient></defs><defs><linearGradient id="grad2_3" x1="0%" y1="0%" x2="75%" y2="100%"><stop offset="23.333333333333336%" stop-color="#e3d4b7" stop-opacity="1"></stop><stop offset="76.66666666666666%" stop-color="#c89080" stop-opacity="1"></stop></linearGradient></defs><g transform="translate(900, 0)"><path d="M0 421.9C-63.3 424.7 -126.5 427.5 -161.4 389.8C-196.4 352 -203 273.7 -228.4 228.4C-253.8 183.1 -298.1 170.7 -333.5 138.1C-368.9 105.6 -395.4 52.8 -421.9 0L0 0Z" fill="#d6b297"></path><path d="M0 316.4C-47.4 318.5 -94.9 320.6 -121.1 292.3C-147.3 264 -152.2 205.3 -171.3 171.3C-190.4 137.3 -223.6 128 -250.1 103.6C-276.7 79.2 -296.5 39.6 -316.4 0L0 0Z" fill="#b66e73"></path><path d="M0 210.9C-31.6 212.3 -63.3 213.8 -80.7 194.9C-98.2 176 -101.5 136.9 -114.2 114.2C-126.9 91.5 -149.1 85.4 -166.8 69.1C-184.5 52.8 -197.7 26.4 -210.9 0L0 0Z" fill="#76386e"></path><path d="M0 105.5C-15.8 106.2 -31.6 106.9 -40.4 97.4C-49.1 88 -50.7 68.4 -57.1 57.1C-63.5 45.8 -74.5 42.7 -83.4 34.5C-92.2 26.4 -98.8 13.2 -105.5 0L0 0Z" fill="#422a6d"></path></g><g transform="translate(0, 675)"><path d="M0 -421.9C64.5 -425.4 129 -428.9 161.4 -389.8C193.9 -350.6 194.4 -268.9 226.3 -226.3C258.2 -183.6 321.5 -180.1 359.4 -148.9C397.2 -117.7 409.6 -58.8 421.9 0L0 0Z" fill="#d6b297"></path><path d="M0 -316.4C48.4 -319 96.7 -321.7 121.1 -292.3C145.4 -263 145.8 -201.7 169.7 -169.7C193.6 -137.7 241.2 -135 269.5 -111.6C297.9 -88.2 307.2 -44.1 316.4 0L0 0Z" fill="#b66e73"></path><path d="M0 -210.9C32.2 -212.7 64.5 -214.4 80.7 -194.9C97 -175.3 97.2 -134.5 113.1 -113.1C129.1 -91.8 160.8 -90 179.7 -74.4C198.6 -58.8 204.8 -29.4 210.9 0L0 0Z" fill="#76386e"></path><path d="M0 -105.5C16.1 -106.3 32.2 -107.2 40.4 -97.4C48.5 -87.7 48.6 -67.2 56.6 -56.6C64.5 -45.9 80.4 -45 89.8 -37.2C99.3 -29.4 102.4 -14.7 105.5 0L0 0Z" fill="#422a6d"></path></g></svg>